HIERARCHY
ROOT Hips
{
  OFFSET 0 0 0
  CHANNELS 6 Xposition Yposition Zposition Zrotation Xrotation Yrotation
  JOINT LeftHip
  {
    OFFSET 3.43 -2.84217e-014 -1.42109e-014
    CHANNELS 3 Zrotation Xrotation Yrotation
    JOINT LeftKnee
    {
      OFFSET -5.32907e-014 -18.47 -3.62377e-013
      CHANNELS 3 Zrotation Xrotation Yrotation
      JOINT LeftAnkle
      {
        OFFSET 6.39488e-014 -17.95 -1.32161e-012
        CHANNELS 3 Zrotation Xrotation Yrotation
        End Site
        {
          OFFSET 0 -3.12 0
        }
      }
    }
  }
  JOINT RightHip
  {
    OFFSET -3.43 0 -1.42109e-014
    CHANNELS 3 Zrotation Xrotation Yrotation
    JOINT RightKnee
    {
      OFFSET -1.1724e-013 -18.47 -1.77636e-013
      CHANNELS 3 Zrotation Xrotation Yrotation
      JOINT RightAnkle
      {
        OFFSET -1.08713e-012 -17.95 8.95284e-013
        CHANNELS 3 Zrotation Xrotation Yrotation
        End Site
        {
          OFFSET 0 -3.12 0
        }
      }
    }
  }
  JOINT Chest
  {
    OFFSET 9.23706e-014 4.57 4.26326e-014
    CHANNELS 3 Zrotation Xrotation Yrotation
    JOINT Chest2
    {
      OFFSET 3.55271e-014 6.57 1.42109e-014
      CHANNELS 3 Zrotation Xrotation Yrotation
      JOINT LeftCollar
      {
        OFFSET 1.06 4.19 1.76
        CHANNELS 3 Zrotation Xrotation Yrotation
        JOINT LeftShoulder
        {
          OFFSET 5.81 2.13163e-014 2.84217e-014
          CHANNELS 3 Zrotation Xrotation Yrotation
          JOINT LeftElbow
          {
            OFFSET -7.14095e-013 -12.08 -1.50635e-012
            CHANNELS 3 Zrotation Xrotation Yrotation
            JOINT LeftWrist
            {
              OFFSET -2.56719e-011 -9.82 -9.73444e-012
              CHANNELS 3 Zrotation Xrotation Yrotation
              End Site
              {
                OFFSET 0 -7.37 0
              }
            }
          }
        }
      }
      JOINT RightCollar
      {
        OFFSET -1.06 4.19 1.76
        CHANNELS 3 Zrotation Xrotation Yrotation
        JOINT RightShoulder
        {
          OFFSET -6.06 -2.84217e-014 5.68434e-014
          CHANNELS 3 Zrotation Xrotation Yrotation
          JOINT RightElbow
          {
            OFFSET -6.82121e-013 -11.08 -3.97904e-013
            CHANNELS 3 Zrotation Xrotation Yrotation
            JOINT RightWrist
            {
              OFFSET -8.15525e-012 -9.82 7.81597e-013
              CHANNELS 3 Zrotation Xrotation Yrotation
              End Site
              {
                OFFSET 0 -7.14001 0
              }
            }
          }
        }
      }
      JOINT Neck
      {
        OFFSET 2.84217e-014 4.05 2.84217e-014
        CHANNELS 3 Zrotation Xrotation Yrotation
        JOINT Head
        {
          OFFSET 1.84741e-013 5.19 1.98952e-013
          CHANNELS 3 Zrotation Xrotation Yrotation
          End Site
          {
            OFFSET 0 4.14001 0
          }
        }
      }
    }
  }
}
MOTION
Frames:	13
Frame Time:	0.0333333
52.2617 38.0436 48.5176 -7.90155 1.11267 -138.485 -9.81158 -14.517 -8.91595 0.628738 33.16 5.46919 -0.337148 -12.1565 -0.0359015 -6.63429 -10.6349 -2.35435 -8.39572 69.4489 11.7018 4.35586 9.15884 -0.349057 -1.95335 2.67641 1.15397 -1.51545 3.55569 1.52472 1.30342 0.0633569 -1.96315 19.1714 -0.924372 3.05026 -9.62528 -12.161 -29.7269 -0.949089 13.8313 0.115118 -2.50233 0.339137 2.4558 -20.2899 -4.14728 -0.0551544 15.5974 -16.0796 28.2197 -5.68657 11.5971 0.577944 1.03114 -3.13232 1.1069 -1.35773 4.47028 1.68553 
51.0656 38.2302 47.3225 -7.66217 1.77268 -137.175 -9.51981 -11.015 -8.56691 0.869091 32.4577 5.00514 0.357975 -14.4802 0.0454776 -5.45566 -15.3282 -2.17811 -5.70742 67.7431 6.80918 1.49566 6.04803 -0.0790173 -1.5878 3.04273 0.374588 -1.36324 4.05005 0.515877 1.62351 0.0531104 -1.80179 19.6769 -2.9499 2.12038 -10.0512 -15.0162 -29.4982 -0.366025 13.7578 0.0441573 -2.81094 0.322518 1.93254 -19.9995 -2.68118 0.0513046 15.7131 -15.6831 27.9536 -5.01452 11.421 0.501761 1.2058 -3.51125 1.33016 -1.29077 4.35815 1.95412 
49.9104 38.3509 46.1308 -7.44276 2.38502 -135.847 -8.95184 -7.45003 -8.07829 1.02761 31.6195 4.35379 0.95267 -16.8077 0.140747 -4.59169 -19.421 -1.78495 -3.30589 64.3335 1.57725 -0.252773 -0.00667372 -1.47213e-005 -1.23769 3.4184 -0.340083 -1.18357 4.54445 -0.450685 1.92931 0.0435112 -1.62325 20.1939 -4.88879 1.32361 -10.5045 -18.1102 -29.1541 0.126784 13.721 -0.0152538 -3.1237 0.308762 1.41478 -19.6869 -1.40889 0.116947 15.783 -15.4649 27.5752 -4.52266 11.221 0.444515 1.33407 -3.89345 1.5252 -1.14925 4.18171 2.16421 
48.7883 38.4004 44.9365 -7.3027 2.92497 -134.533 -8.135 -3.62874 -7.43433 1.05524 30.5477 3.4852 1.48934 -19.2151 0.252119 -3.93802 -22.2066 -1.20476 -1.80075 58.0721 -2.24825 -1.30885 -5.99023 -0.0684852 -0.953093 3.7865 -0.979322 -0.989903 5.02409 -1.34509 2.20587 0.0347746 -1.4258 20.6658 -6.69935 0.662463 -10.9855 -21.1896 -28.7403 0.531525 13.71 -0.0638987 -3.44177 0.29791 0.905677 -19.2973 -0.345071 0.146759 15.7862 -15.3748 27.0516 -4.19717 11.0154 0.404889 1.44927 -4.26415 1.68789 -0.983174 3.95887 2.33033 
47.686 38.3759 43.7232 -7.27731 3.38765 -133.26 -7.12644 0.196959 -6.65794 0.863597 29.2496 2.36108 2.07127 -21.4253 0.391886 -3.50678 -23.2884 -0.41696 -1.27705 48.514 -3.90199 -1.52542 -6.1496 -0.0819456 -0.758487 4.12794 -1.53575 -0.792532 5.47345 -2.12738 2.43653 0.0270039 -1.20688 21.0202 -8.30802 0.115965 -11.4855 -23.9436 -28.3437 0.894683 13.7049 -0.107518 -3.7685 0.290011 0.411062 -18.7801 0.50393 0.148234 15.7072 -15.3765 26.3482 -4.01933 10.8161 0.380662 1.5693 -4.59302 1.80896 -0.838085 3.67836 2.45774 
46.5773 38.2684 42.4725 -7.37874 3.77787 -132.022 -5.93402 4.02115 -5.72675 0.409861 27.85 0.934825 2.76228 -23.5215 0.575204 -3.32441 -23.0778 0.564763 -1.42532 38.0303 -4.90038 -0.169934 -4.29155 -0.00636715 -0.67144 4.43269 -2.0369 -0.592668 5.88908 -2.80672 2.62767 0.02014 -0.972667 21.2609 -9.71413 -0.358886 -12.0066 -26.2713 -28.0214 1.22278 13.6798 -0.146677 -4.10432 0.28506 -0.0682228 -18.1762 1.22466 0.132811 15.5804 -15.4152 25.5238 -3.90881 10.6164 0.363313 1.69677 -4.86834 1.89433 -0.737233 3.33858 2.56002 
45.4459 38.0915 41.1606 -7.56539 4.1568 -130.868 -4.48266 7.90843 -4.64516 -0.325131 26.2508 -0.791931 3.57246 -25.4302 0.806326 -3.45838 -22.1297 1.2502 -1.49717 29.0558 -5.6718 1.25687 -3.8809 0.0425849 -0.626828 4.70727 -2.45016 -0.390176 6.27494 -3.34082 2.76818 0.0140291 -0.720214 21.3211 -10.8207 -0.799654 -12.527 -27.9147 -27.8561 1.58903 13.6181 -0.189747 -4.45319 0.283098 -0.522837 -17.4636 1.80036 0.12126 15.4158 -15.4781 24.5758 -3.85796 10.4091 0.351541 1.838 -5.0712 1.93191 -0.712592 2.91377 2.63258 
44.2863 37.8829 39.7807 -7.79899 4.57658 -129.844 -2.81973 12.0135 -3.59661 -1.12247 24.0773 -2.6073 4.23948 -26.9042 1.0145 -3.50013 -20.6088 1.50743 -1.29031 21.9297 -6.05377 2.09593 -2.56467 0.046922 -0.573617 4.96767 -2.74541 -0.179487 6.64378 -3.71354 2.85933 0.00841875 -0.450608 21.1823 -11.5758 -1.23932 -13.0266 -28.7609 -27.8835 2.03483 13.5108 -0.241058 -4.81574 0.284072 -0.945853 -16.6636 2.23447 0.136825 15.2436 -15.5432 23.5501 -3.84623 10.1755 0.342564 1.99596 -5.20573 1.91859 -0.779503 2.40472 2.67518 
43.0955 37.6617 38.3414 -8.04855 5.06941 -128.956 -0.94086 16.7666 -2.58402 -1.86696 20.6548 -4.76061 4.73482 -27.6884 1.16748 -3.19627 -20.1729 1.93537 -1.28576 19.5963 -6.55612 2.9753 -0.833615 0.0216496 -0.477562 5.22868 -2.92462 0.0433685 7.00812 -3.94231 2.91149 0.00306706 -0.168264 20.8735 -11.9558 -1.68849 -13.4803 -28.8226 -28.0766 2.55371 13.3577 -0.299085 -5.18811 0.287788 -1.3369 -15.8297 2.52434 0.208158 15.1073 -15.5745 22.5349 -3.85146 9.88933 0.333336 2.16366 -5.30499 1.86577 -0.927116 1.85277 2.69413 
41.8807 37.4607 36.8624 -8.23345 5.71064 -128.182 1.15894 22.1396 -1.63164 -2.46607 17.016 -7.03973 4.98005 -27.0737 1.1997 -2.34551 -20.5947 2.56802 -1.35667 21.2851 -7.14228 3.02549 0.531027 -0.0140237 -0.227654 5.52201 -3.01597 0.275205 7.39023 -4.06489 2.9353 -0.00220496 0.122363 20.4276 -11.9349 -2.13654 -13.8464 -28.1572 -28.3675 3.11623 13.1666 -0.359728 -5.56324 0.293965 -1.70301 -14.998 2.61183 0.373196 15.0441 -15.5398 21.6153 -3.87616 9.52689 0.323122 2.31923 -5.43915 1.79683 -1.11431 1.3417 2.69761 
40.6547 37.2936 35.3535 -8.35663 6.49188 -127.493 3.19083 25.0058 -0.678724 -2.59824 18.5128 -9.17859 5.19444 -25.9 1.19523 -1.17961 -20.5817 3.23671 -1.28766 23.9097 -7.71806 2.98119 3.10224 -0.0807452 0.155886 5.84401 -3.0481 0.527342 7.79018 -4.08092 2.94099 -0.00753645 0.419384 19.8823 -11.5255 -2.55918 -14.1067 -26.8326 -28.7015 3.68214 12.9498 -0.418036 -5.93745 0.302261 -2.03711 -14.1662 2.55829 0.281737 14.8466 -15.4254 20.2607 -3.92685 9.12506 0.313484 2.44342 -5.65799 1.71855 -1.30578 0.939645 2.67882 
39.4079 37.1749 33.8139 -8.45607 7.36821 -126.939 5.05345 25.9967 0.144572 -2.09349 23.8686 -10.7172 5.07115 -23.2155 1.04233 0.155654 -20.2036 3.89124 -1.01856 27.6512 -8.12026 2.94332 4.11064 -0.105652 0.577898 6.17136 -2.97371 0.832122 8.19716 -3.91357 2.93593 -0.013034 0.723525 19.2617 -10.8127 -2.93582 -14.2859 -24.8978 -29.0691 4.21493 12.7263 -0.470246 -6.30989 0.311937 -2.3042 -13.3485 2.45711 -0.311113 14.3719 -15.2386 18.1235 -3.99353 8.68623 0.303419 2.54538 -5.95807 1.6012 -1.5075 0.646891 2.60836 
38.143 37.1771 32.2422 -8.56858 8.29115 -126.644 6.71493 24.0104 0.876749 -1.06319 34.1012 -11.7041 4.24107 -15.9558 0.594641 1.55017 -19.5626 4.50246 -0.47181 32.8831 -8.61476 2.89464 -1.1534 0.0291427 0.943162 6.47423 -2.65725 1.20412 8.59194 -3.53118 2.92394 -0.0187202 1.03315 18.5775 -9.87039 -3.2344 -14.3965 -22.4596 -29.4441 4.64771 12.517 -0.509982 -6.67205 0.321877 -2.48612 -12.5689 2.32298 -1.20342 13.7552 -15.0339 15.523 -4.07393 8.14247 0.290089 2.58761 -6.38986 1.43892 -1.66095 0.535179 2.45577 
